# xmcd
#
# Track frame offsets: 
#        150
#        47917
#        51533
#        66892
#        107498
#        119362
#        143153
#        175877
#        204298
#        227762
#
# Disc length: 3236 seconds
#
# Revision: 0
# Processed by: cddbd v1.5.2PL0 Copyright (c) Steve Scherf et al.
# Submitted via: ExactAudioCopy v0.95b3
#
DISCID=8f0ca20a
DTITLE=Chicago Transit Authority  - Fillmore West - Disc 1
DYEAR=1900
DGENRE=
TTITLE0=Poem 58
TTITLE1=Freeform Intro
TTITLE2=Does Anybody Really Know What Time It Is?
TTITLE3=It Better End Soon
TTITLE4=Someday (cuts)
TTITLE5=Questions 67 and 68
TTITLE6=25 Or 6 To 4
TTITLE7=Beginnings (original version with dropout)
TTITLE8=Questions 67 and 68 (original version with dropout)
TTITLE9=The Road (original version with dropout)
EXTD=
EXTT0=
EXTT1=
EXTT2=
EXTT3=
EXTT4=
EXTT5=
EXTT6=
EXTT7=
EXTT8=
EXTT9=
PLAYORDER=
